Coordinates
version=1
nRows=18
nColumns=34
inDegrees=no

Units are S.I. units (second, meters, Newtons, ...)
If the header above contains a line with 'inDegrees', this indicates whether rotational values are in degrees (yes) or radians (no).

endheader
time	pelvis_tilt	pelvis_list	pelvis_rotation	pelvis_tx	pelvis_ty	pelvis_tz	hip_flexion_r	hip_adduction_r	hip_rotation_r	knee_angle_r	ankle_angle_r	subtalar_angle_r	mtp_angle_r	hip_flexion_l	hip_adduction_l	hip_rotation_l	knee_angle_l	ankle_angle_l	subtalar_angle_l	mtp_angle_l	lumbar_extension	lumbar_bending	lumbar_rotation	arm_flex_r	arm_add_r	arm_rot_r	elbow_flex_r	pro_sup_r	arm_flex_l	arm_add_l	arm_rot_l	elbow_flex_l	pro_sup_l
0	0.178243	-0.0992544	-0.0785305	-0.170646	0.941386	-0.555006	-0.262219	0.0779854	0.0330332	0.00453426	0.179763	0.042535	-0.0215917	-0.164239	-0.27837	-0.307704	0.248157	0.333908	0.232381	-0.0215918	-0.355828	0.136176	0.0318609	0.890279	-0.372692	0.300382	1.15095	1.81026	0.782318	-0.326716	0.228442	1.24361	1.5625
0.01	0.178874	-0.100457	-0.0787624	-0.170903	0.941521	-0.55484	-0.262645	0.0795258	0.0361884	0.00425327	0.177075	0.0380432	-0.0215917	-0.165145	-0.28117	-0.316077	0.247965	0.336438	0.245921	-0.0215918	-0.357081	0.137535	0.0329723	0.892846	-0.374459	0.304009	1.15197	1.79448	0.785537	-0.326447	0.229963	1.24017	1.57909
0.02	0.178716	-0.101411	-0.0789026	-0.171201	0.941601	-0.554689	-0.262018	0.0808879	0.0387427	0.00405251	0.174807	0.0339713	-0.0215917	-0.164704	-0.283565	-0.322339	0.248189	0.338249	0.256153	-0.0215918	-0.357705	0.138762	0.0338397	0.89556	-0.375983	0.307279	1.15283	1.7815	0.788848	-0.326249	0.231409	1.23704	1.5937
0.03	0.177791	-0.102124	-0.0789479	-0.171539	0.941631	-0.554552	-0.260365	0.0820778	0.0406899	0.00393363	0.172951	0.0303355	-0.0215917	-0.162957	-0.285562	-0.326509	0.248805	0.339344	0.26312	-0.0215918	-0.357721	0.139862	0.0344646	0.898424	-0.377261	0.310184	1.15351	1.77134	0.792256	-0.326121	0.232792	1.23421	1.6063
0.04	0.176155	-0.102616	-0.0788938	-0.171916	0.941615	-0.554427	-0.25775	0.0831117	0.0420256	0.00390091	0.171488	0.027162	-0.0215917	-0.159995	-0.28718	-0.328657	0.249769	0.339743	0.266956	-0.0215918	-0.357183	0.140852	0.034856	0.901435	-0.378283	0.312701	1.15399	1.76401	0.795774	-0.32606	0.234129	1.23166	1.61685
0.05	0.173878	-0.102927	-0.0787394	-0.172333	0.941559	-0.554314	-0.254251	0.0840262	0.0427823	0.00396006	0.170368	0.02443	-0.0215917	-0.155925	-0.288481	-0.328963	0.251053	0.339505	0.267974	-0.0215918	-0.356163	0.141761	0.0350378	0.904592	-0.379046	0.31481	1.15426	1.75935	0.799422	-0.326055	0.235429	1.22934	1.62547
0.06	0.171022	-0.103112	-0.0784877	-0.17279	0.941469	-0.554207	-0.249941	0.0848762	0.0430341	0.00411402	0.169519	0.0220582	-0.0215917	-0.150834	-0.289562	-0.327705	0.25266	0.338726	0.266635	-0.0215918	-0.354728	0.142635	0.0350457	0.907891	-0.379557	0.316513	1.15433	1.75704	0.803221	-0.326092	0.236684	1.22717	1.63246
0.07	0.16763	-0.10323	-0.0781414	-0.173287	0.941349	-0.554102	-0.244877	0.0857257	0.042886	0.00435614	0.168849	0.0199129	-0.0215917	-0.14477	-0.290545	-0.325217	0.254633	0.337525	0.263494	-0.0215918	-0.352928	0.14352	0.0349189	0.911328	-0.379848	0.317855	1.15421	1.75668	0.807191	-0.326157	0.237871	1.22507	1.63823
0.08	0.163718	-0.103335	-0.0776979	-0.173828	0.941201	-0.553995	-0.239093	0.0866359	0.0424572	0.00466154	0.168263	0.0178273	-0.0215917	-0.137734	-0.291553	-0.321846	0.257042	0.336028	0.259135	-0.0215918	-0.350782	0.144463	0.0346898	0.914902	-0.379973	0.318922	1.15393	1.75784	0.811349	-0.326242	0.238966	1.22295	1.64317
0.09	0.15928	-0.103466	-0.0771476	-0.174412	0.941022	-0.55388	-0.232614	0.087657	0.0418682	0.00497893	0.167673	0.0156241	-0.0215917	-0.129685	-0.292697	-0.317919	0.259971	0.334353	0.254125	-0.0215919	-0.348288	0.145494	0.0343785	0.918615	-0.380003	0.319837	1.15351	1.76019	0.815701	-0.32634	0.23995	1.22077	1.64756
0.1	0.154296	-0.103648	-0.0764766	-0.175041	0.940812	-0.553755	-0.225466	0.0888275	0.041231	0.00522558	0.167004	0.0131397	-0.0215917	-0.120568	-0.294072	-0.313727	0.2635	0.332599	0.248984	-0.0215919	-0.34543	0.146636	0.0339955	0.922478	-0.380024	0.320748	1.15299	1.76343	0.820253	-0.326453	0.240822	1.21851	1.65152
0.11	0.148752	-0.1039	-0.0756725	-0.175716	0.940568	-0.553614	-0.217697	0.0901796	0.0406433	0.00528917	0.166199	0.0102451	-0.0215917	-0.110337	-0.295751	-0.309525	0.267685	0.330845	0.244159	-0.0215919	-0.342191	0.147902	0.0335474	0.926509	-0.380119	0.321806	1.15239	1.76735	0.825008	-0.326581	0.241603	1.21616	1.65499
0.12	0.142644	-0.104243	-0.0747305	-0.176437	0.940287	-0.553454	-0.20938	0.0917464	0.0401801	0.00504008	0.165231	0.00686468	-0.0215918	-0.0989797	-0.297796	-0.305523	0.27255	0.329143	0.24001	-0.0215919	-0.338574	0.149305	0.0330442	0.930734	-0.380354	0.323135	1.15172	1.77176	0.829969	-0.326726	0.242348	1.21373	1.65779
0.13	0.135988	-0.104704	-0.0736572	-0.177203	0.939968	-0.55327	-0.200607	0.0935649	0.0398824	0.00435703	0.164107	0.00299314	-0.0215918	-0.0865278	-0.300252	-0.301872	0.278076	0.327525	0.236774	-0.0215919	-0.334601	0.150861	0.0325041	0.935176	-0.380753	0.324806	1.151	1.77645	0.835146	-0.326885	0.243145	1.21124	1.65971
0.14	0.12882	-0.105311	-0.0724726	-0.178015	0.939613	-0.553057	-0.191466	0.0956694	0.0397377	0.0031674	0.162882	-0.00128609	-0.0215918	-0.0730548	-0.303145	-0.29864	0.28421	0.325985	0.23452	-0.0215919	-0.330323	0.152582	0.031955	0.939862	-0.3813	0.326825	1.15023	1.7811	0.840552	-0.327052	0.244101	1.20872	1.66066
0.15	0.121196	-0.106088	-0.0712063	-0.178877	0.939221	-0.552812	-0.182011	0.0980774	0.0396566	0.00149994	0.161679	-0.00578699	-0.0215918	-0.0586716	-0.306458	-0.295769	0.290858	0.324477	0.233111	-0.0215919	-0.325822	0.154477	0.0314338	0.944818	-0.381948	0.329141	1.14942	1.78528	0.846213	-0.327213	0.245315	1.20613	1.66077
0.16	0.113184	-0.107037	-0.0698942	-0.179795	0.938797	-0.552533	-0.172218	0.100771	0.0394537	-0.000456136	0.160706	-0.0102175	-0.0215918	-0.0435172	-0.310116	-0.29306	0.29789	0.322905	0.232167	-0.0215919	-0.321201	0.156534	0.0309846	0.950069	-0.382642	0.331667	1.14861	1.78842	0.852165	-0.327347	0.246842	1.20344	1.66047
0.17	0.10486	-0.108133	-0.0685782	-0.18078	0.938342	-0.552222	-0.161951	0.103685	0.0388403	-0.00229738	0.160257	-0.0141927	-0.0215918	-0.027743	-0.313978	-0.290178	0.305147	0.321129	0.2311	-0.0215919	-0.316578	0.158719	0.0306583	0.95564	-0.383339	0.334304	1.14784	1.7899	0.858451	-0.32742	0.248684	1.20056	1.66038
